/* XPM */
static char * brick_xpm[] = {
"64 64 137 2",
"  c #A6897B",
".  c #9D7A6E",
"+   c #A88477",
"@   c #B29483",
"#   c #B79A87",
"$   c #9E877A",
"%   c #8B7265",
"&   c #8A6D60",
"*   c #806757",
"=   c #7A6454",
"-   c #7A6451",
";   c #785E51",
">   c #9C7E6A",
",   c #A78571",
"'   c #BA9781",
")   c #B58872",
"!   c #B2897B",
"~   c #A07869",
"{   c #9C7464",
"]   c #987363",
"^   c #8D6A59",
"/   c #8C6755",
"(   c #896551",
"_   c #7A5C4C",
":   c #6C5543",
"<   c #695445",
"[   c #614F3D",
"}   c #725B4A",
"|   c #8E7260",
"1   c #7A5F4E",
"2   c #725749",
"3   c #6F5444",
"4   c #8B6D58",
"5   c #A57F6D",
"6   c #9D7C6A",
"7   c #946F5D",
"8   c #8D6C58",
"9   c #705644",
"0   c #5E4A3A",
"a   c #5A4736",
"b   c #7E6553",
"c   c #8A6D5A",
"d   c #735947",
"e   c #97765E",
"f   c #B8907B",
"g   c #8D6F5C",
"h   c #785E4D",
"i   c #624E3D",
"j   c #8C6E5B",
"k   c #866B58",
"l   c #7A5E4D",
"m   c #6F5443",
"n   c #6B5241",
"o   c #69513F",
"p   c #B88F7A",
"q   c #826750",
"r   c #7E6250",
"s   c #5D4938",
"t   c #705547",
"u   c #685243",
"v   c #665042",
"w   c #745847",
"x   c #9A7A63",
"y   c #7B6251",
"z   c #5E4A3A",
"A   c #5A4737",
"B   c #7F6653",
"C   c #7A6150",
"D   c #6E5544",
"E   c #735C4A",
"F   c #6B5342",
"G   c #5E4B3A",
"H   c #8D715B",
"I   c #8C705A",
"J   c #8A6E58",
"K   c #A17E68",
"L   c #7A6150",
"M   c #7C6152",
"N   c #6A5241",
"O   c #A48E7B",
"P   c #8C6E5B",
"Q   c #9A7A63",
"R   c #8A6E58",
"S   c #7A6150",
"T   c #8E7260",
"U   c #A28C77",
"V   c #C2B19F",
"W   c #B09782",
"X   c #D2C1B0",
"Y   c #B5A18B",
"Z   c #D0BEAB",
"`   c #BDAA98",
" .  c #8D7562",
"..  c #A08C78",
"+.  c #BCA990",
"@.  c #C1B19F",
"#.  c #8A7763",
"$.  c #8E7A66",
"%.  c #A08D79",
"&.  c #A98C75",
"*.  c #D3C2B0",
"=.  c #A38F7B",
"-.  c #B9A690",
";.  c #B7A48E",
">.  c #A48E78",
",.  c #A38D78",
"'.  c #BCA790",
").  c #B7A48F",
"!.  c #B5A38D",
"~.  c #A38E7A",
"{.  c #B4A38E",
"].  c #8F7763",
"^.  c #927866",
"/.  c #A38D78",
"(.  c #8D7B69",
"_.  c #B8A58E",
":.  c #B6A490",
"<.  c #B29F8B",
"[.  c #B1A18C",
"}.  c #C3B2A0",
"|.  c #D3C2B0",
"1.  c #C7B59F",
"2.  c #B7A38E",
"3.  c #A08A75",
"4.  c #917962",
"5.  c #C5B29E",
"6.  c #A18C77",
"7.  c #9B8572",
"8.  c #95806A",
"9.  c #D8C6B4",
"0.  c #C7B5A1",
"a.  c #B9A58E",
"b.  c #BCA891",
"c.  c #A38E79",
"d.  c #BDA894",
"e.  c #B6A38E",
"f.  c #B4A28D",
"                    . + @ # @ $ % & * * * * * * * * * * * * * * * = - ; > # , ' ) ) ) ! ~ { ] ^ / ( # # # # _ - :               ",
"                    < [ } # # | % % 1 * * * * * * * * * * * * * * 2 - 3 4 # 5 ) ' 6 { { { { { 7 ] 8 # # # # 9 - 0               ",
"                      a . b # # c % % d * * * * * * * * * * * * 2 - ; b # e f 6 / # # # # # # # # # g 4 # # h - i               ",
"                      < [ : j # # k % l m * * * * * * * * n o - - 2 b # # { p / # # # # # # # # # # # q # # r - s               ",
"                        a [ t # # # c % l * * * * * * o u ; v w r 4 # # ( ! x # # # # # # # # # # # # y # # 4 ; z               ",
"                        < [ A B # # # > C & m * = D 3 E h q 4 # # # # # e p 8 # # # # # # # # # # # # c j # 4 F -               ",
"                          a [ v 4 # # # # 4 > g 4 4 4 # # # ( ( ( # # # 7 p / # # # # # # # # # # # # c c # # h - G             ",
"                          < [ A B # # # # # # ( / , H { 7 { 6 I J | # # K 6 # # # # # # # # # # # # # g L # # M - i             ",
"                          N [ [ O # # # P ] Q ' p p ! { I / ( # | c # / p ] # # # # # # # # # # # # # # $ j # 4 v s             ",
"                        < a [ [ 9 # # R f ) ' x I / ( # # # # # c c # ^ p e # # # # # # # # # # # # # # S T # # U -             ",
"                    < . [ [ . 2 4 # # K ) V / # # # # # # # # # k c # { p ( # # # # # # # # # # # # # # k y # # M - :           ",
"              < A [ [ [ [   W 4 # # ( X ' ( # # # # # # # # # # Y c # x 6 # # # # # # # # # # # # # # # c $ # # 4 D i           ",
"        N A . [ [ [ . G w g # # # # # Z X ( # # # # # # # # # j $ c ( ! { # # # # # # # # # # # # # # # | % ` # # W s           ",
"  N  .. [ [ [ a N ..r 4 # j T k +.# # x Z ( # # # # # # # # # q % g / p @.# # # # # # # # # # # # # # # 4 % c # # @ v           ",
"[ [ [ A #.} O T j g c y % & 1 * * 4 # 7 Z # # # # # # # # # # k % # / ' / # # # # # # # # # # # # # # # # % C # # # h :     $.#.",
"%.O &.> j 4 q k $ % & 1 * * * * * M # , *.( # # # # # # # # # Y S # / ! ( # # # # # # # # # # # # # # # # % $ # # # 4 F $.#.A N ",
"# # j c C % % & 1 * * * * * * * * h # # { ( # # # # # g @ T y % c # ( 7 # # # # # # # # # # # # # # 4 q c % % # # # # 4 4 4 4 4 ",
"T C % % l =.m * * * * * * * * * * _ # # # # ` c c y Y $ $ % % $ > # # # q c c c c k -.y C ;.Y % % % % % % % y # # # # # # # # j ",
"% >.,.m * * * * * * * * * * * * * } 4 # # # # # # # # # # 4 g # # # # # # # ` c c c c -.y C C y -.c c c q 4 # # # # # # # | y % ",
"1 * * * * * * * * * * * * * * * * v > # # '.).).).).r '.q g 4 4 4 4 # # # # # # # # # # # # # # ( / / / / / ( # # # # 4 C % % & ",
"* * * * * * * * * * * * * * * * * ; !.# r ; - - - - - - ; ; ; ; ; F ~.h {.q 4 # # # / @.{ { x Z ' p ' ! { ] 8 ( | g # 4 % % d * ",
"* * * * * * * * * * * * * * * * * u h # ).- - i G ].        : ].G G 0 i i s v > # @.p ) ) ) p 6 { @./ ( # # # # # y # # y % m * ",
"* * * * * * * * * * * * * * * * * 2 9 # T ; -                                 O # @.) ) Z 8 / # # # # # # # # # # k q # g % ,.* ",
"* * * * * * * * * * * * * * * * * 2 3 4 4 ; z                                 G j / p f ^ # # # # # # # # # # # # | S # # k >.* ",
"* * * * * * * * * * * * * * * * * 2 v 4 4 v ^.                                $.W # 6 ) H # # # # # # # # # # # # # $ q # # S 1 ",
"* * * * * * * * * * * * * * * * * u ; 4 # /.z                                   (.4 8 ) { # # # # # # # # # # # # # y _.# # | >.",
"1 * * * * * * * * * * * = o o 2 ; - } 4 # h z                                   A q ( X X ( # # # # # # # # # # # # c % 4 # # T ",
"T :.:.:.<.[.&./._ _ _ _ _ _ _ w E h M # # r -                                   A O # H f P # # # # # # # # # # # j C % g # # # ",
"# # # # # # # # # # # # # # # # # # # # # 4 ;                                   < 0 4 / ' ] # # # # # # # # # j k $ $ c # # # # ",
"{ { Q 7 / # # # ( , H { { { { { 7 ] ] , # 4 3                                   < . +.# H Z # # # # # # # | y $ S c 4 # # # / ^ ",
") ) ) ) X @.# # { f ) f ' 6 { H }./ / g g # h                                   $.[ O # ( *.P # # # j c L C c j # # ( e ] K f f ",
"f |.{ { ! p 8 # @.f ' 1.( # # # # # # # y # T :                                   [ 0 4 # @.H # | c c q 4 # # ( , { ! f ) ) ) f ",
"/ ( # # ( R ! 8 # { f }.# # # # # # # # 2.j 4 3.4.N $.< < < < < < < < < < < < < A [ A 4 # # / g # # # # # / 5.|.f ) ) ) p 6 ] , ",
"# # # # # # / { @.( Z |.( # # # # # # # c c # # 4 j M 6.O O O O 7.(.8.4.4.  A A   4.u 4 # # # # # # # P { ' ) ) f 9.{ J / # # # ",
"# # # # # # # # ^ / / Z I # # # # # # # T S # # # # ( / / / ( ( # # 4 4 4 4 4 4 4 4 4 # # # # # # ( 5.p ) ) ' { }.( # # # # # # ",
"# # # # # # # # # 4 j P |.0.# # # # # # j $ j # # x X f f f 9.X Z K x { { { { 5.@.P / / ( # # # # Q ) ) |.R / # # # # # # # # # ",
"# # # # # # # # # # T # 1.{ ( # # # # # # $ c # / f ) ' Z ~ { { { { { { { { { 7 7 ] ] ] 5.# # # ( ' ) J ( # # # # # # # # # # # ",
"# # # # # # # # # # | y # , , # # # # # 4 % k # / f f P ( # # # # # # # # # # # # # # # # # q # # K f / # # # # # # # # # # # # ",
"# # # # # # # # # # # S a.# P g j # # j k % k # / f f / # # # # # # # # # # # # # # # # # # C # # { f / # # # # # # # # # # # # ",
"# # # # # # # # # # # c $ | # 4 y y S $ $ k 4 # ( ' f / # # # # # # # # # # # # # # # # # # k | # H f @.# # # # # # # # # # # # ",
"# # # # # # # # # # # j % S 4 # # q c q 4 # # # # 6 ) @.# # # # # # # # # # # # # # # # # # c y # 0.f { # # # # # # # # # # # # ",
"# # # # # # # # # # # # % % b.# # # # # # # # # # 5.) { # # # # # # # # # # # # # # # # # # g Y 4 ( 9.6 # # # # # # # # # # # # ",
"# # # # # # # # # # # | % % y # # # # # # # # # # ( ! ' @.# # # # # # # # # # # # # # # # # # $ q # { ' ( # # # # # # # # # # # ",
"# # # # # # # # # # # S % $ g # # | c c q j # # # # P ~ ' 8 # # # # # # # # # # # # # # # # # S k # 8 p e # # # # # # # # # # # ",
"# # # # # # # # # # y % % c # # | % % % % % S c g # # # }.5 H ( # # # # # # # # # # # # # # # k $ # / ' ] # # # # # # # # # # # ",
"# # # # # # # # # c % % C # # g $ % % % % % % % % S c g # # @.5.P # # # # # # # # # # # # # # c % j # { 6 # # # # # # # # # # # ",
"# # # # # # # # q % % S 4 # # C % l m * m =.,.l % % % % C q # # 0.4 # # # # # # # # # # # # # k % T # , ' ( # # # # # # # # # # ",
"# # # # # # # | % % % > # # c % l * * * * * * * * d ,.l % % S c 4 # g c c T j # # # # | c k Y $ S g # # 5 , # # # # # # # # # # ",
"# # # # # # q % % % | # # g $ >.m * * * * * * * * * * * * 1 c.>.Y T # # j c S $ Y $ $ $ Y y c g # # # # , H # # # # # # # # # # ",
"g | | | T y % % % c # # # C % 1 * * * * * * * * * * * * * * * * d & S | # # # | c c | # # # # ( / ( # # # / q c c q q | | | | | ",
"% % % % % % % % y # # # | % l * * * * * * * * * * * * * * * * * * * * c.k # # # # # # ( }.{ K p f *.] }.# # # g c y Y $ % % % % ",
"_.Y % % % % S c # # # # _.% m * * * * * * * * * * * * * * * * * * * * * m T # # # / 7 9.) ) f 6 H }.e ( 4 d.> # # # # 4 | c c y ",
"# # # # # # # # # # # | % & * * * * * * * * * * * * * * * * * * * * * * * h # # ( |.) f 5 I / # # # # # # # y S T 4 # # # # # # ",
"# # # # # # # # # # # C % d * * * * * * * * * * * * * * * * * * * * * * * E # # , f ~ P # # # # # # # # # # # y % Y q # # # # # ",
"# # # # # # # # # # j % >.* * * * * * * * * * * * * * * * * * * * * * * o U # # H ' / # # # # # # # # # # # # 4 Y % % g # # # # ",
"# # # # # # # # # # c % & * * * * * * * * * * * * * * * * * * * * * * * 2 U # # { Q # # # # # # # # # # # # # j $ % C # # # # # ",
"# # 4 q ).T # # # # c % & * * * * * * * * * * * * * * * * * * * * * * * ; h # # { { # # # # # # # # # # # # # C % C 4 # # # # # ",
"h _ - s : : {.# # # q % % m * * * * * * * * * * * * * * * * * * * * * * - h # # 5 @.# # # # # # # # # # # 4 C % C 4 # # # # 4 q ",
"^.0           e.# # # S % ,.* * * * * * * * * * * * * * * * * * * * * o - h # ( ! / # # # # # # # # # # g S % y # # # # 4 !.3 ; ",
"              < r # # q % % m * * * * * * * * * * * * * * * * * * * * 2 ; '.# / X ( # # # # # # # # # | $ % q # # # @ E } - ^.0 ",
"              $.: > # # _.% l * * * * * * * * * * * * * * * * * * * * - ; 4 # / 6 # # # # # # # # 4 b.% S | # # 4 f.} - ^.G     ",
"                A (.4 # > % % 1 * * * * * * * * * * * * * * * * * * = - D 4 # ( @.4 ` q T c c c k Y % y 4 # # T ..- z 0         ",
"                N . O # # b.% % m * * * * * * * * * * * * * * * * * o - w # # # # 4 q c c k C ;.;.y | # # # T } - s :           ",
"                  A A r # # S % l * * * * * * * * * * * * * * * * * ; - W # # # # # # # # # # # # # # # # # w - i               "};
