/* XPM */
static char * column_xpm[] = {
/* columns rows colors chars-per-pixel */
"64 64 8 1",
"  c #8A6D60",
".  c #7B5E54",
"+  c #A6897B",
"@  c #9D7A6E",
"#  c #5E4A3A",
"$  c #8A6E58",
"%  c #614D3C",
":  c #A88477",
"                                                                ",
"                                                                ",
"  %%%%%%%%%%%%%%%%%%%%%%%%%%%%%%   %%%%%%%%%%%%%%%%%%%%%%%%%%%%%",
"  %%%###########%%%%%########%%%   %%%###########%%%%%########%%",
"  %%##########################%%   %##########################%%",
"  %%%%######################%%%%   %%%%#####################%%%%",
"  %%%%######################%%%%   %%%%######################%%%",
"  %%%%########@@@@@######%%%%%%%   %%%%#######@@@@@######%%%%%%%",
"  %%%%%%%%%#@@@::::@@#%%%%%%%%%%   %%%%%%%%%#@@@::::@@#%%%%%%%%%",
"  %%%%%%%%##@@::::::@@##%%%%%%%%   %%%%%%%%##@@::::::@@##%%%%%%%",
"  %%%%%%%%%#@@@::::@@#%%%%%%%%%%   %%%%%%%%%#@@@::::@@#%%%%%%%%%",
"  %%%%%%%%##@@::@@::@@##%%%%%%%%   %%%%%%%%##@@::@@::@@##%%%%%%%",
"  %%%%%%%%##@@::@@::@@##%%%%%%%%   %%%%%%%%##@@::@@::@@##%%%%%%%",
"  %%%%%%%%##@@::@@::@@##%%%%%%%%   %%%%%%%%##@@::@@::@@#%%%%%%%%",
"  %%%%%%%%##@@::@@::@@##%%%%%%%%   %%%%%%%%##@@::@@::@@##%%%%%%%",
"  %%%%%%%%##@@::@@::@@##%%%%%%%%   %%%%%%%%##@@::@@::@@##%%%%%%%",
"  %%%%%%%%##@@::@@::@@##%%%%%%%%   %%%%%%%%##@@::@@::@@##%%%%%%%",
"  %%%%%%%%##@@::@@::@@##%%%%%%%%   %%%%%%%%##@@::@@::@@##%%%%%%%",
"  %%%%%%%%##@@::@@::@@##%%%%%%%%   %%%%%%%%##@@::@@::@@##%%%%%%%",
"  %%%%%%%%##@@::@@::@@##%%%%%%%%   %%%%%%%%##@@::@@::@@##%%%%%%%",
"  %%%%%%%%##@@::@@::@@##%%%%%%%%   %%%%%%%%##@@::@@::@@##%%%%%%%",
"  %%%%%%%%##@@::@@::@@##%%%%%%%%   %%%%%%%%##@@::@@::@@##%%%%%%%",
"  %%%%%%%%##@@::@@::@@##%%%%%%%%   %%%%%%%%##@@::@@::@@##%%%%%%%",
"  %%%%%%%%##@@::@@::@@##%%%%%%%%   %%%%%%%%##@@::@@::@@##%%%%%%%",
"  %%%%%%%%##@@::@@::@@##%%%%%%%%   %%%%%%%%##@@::@@::@@##%%%%%%%",
"  %%%%%%%%##@@::@@::@@##%%%%%%%%   %%%%%%%%##@@::@@::@@##%%%%%%%",
"  %%%%%%%%%#@@::@@::@@#%%%%%%%%%   %%%%%%%%##@@::@@@:@@##%%%%%%%",
"  %%%%%%%%##@@::@@::@@##%%%%%%%%   %%%%%%%%##@@::@@::@@##%%%%%%%",
"  %%%%%%%%##@@::@@::@@##%%%%%%%%   %%%%%%%%##@@::@@::@@##%%%%%%%",
"  %%%%%%%%##@@::@@::@@##%%%%%%%%   %%%%%%%%##@@::@@::@@##%%%%%%%",
"  %%%%%%%%##@@::@@::@@##%%%%%%%%   %%%%%%%%##@@::@@::@@##%%%%%%%",
"  %%%%%%%%##@@::@@::@@##%%%%%%%%   %%%%%%%%##@@::@@::@@##%%%%%%%",
"  %%%%%%%%##@@::@@::@@##%%%%%%%%   %%%%%%%%##@@::@@::@@##%%%%%%%",
"  %%%%%%%%##@@::@@::@@##%%%%%%%%   %%%%%%%%##@@::@@::@@##%%%%%%%",
"  %%%%%%%%##@@::@@::@@##%%%%%%%%   %%%%%%%%##@@::@@::@@##%%%%%%%",
"  %%%%%%%%##@@::@@::@@##%%%%%%%%   %%%%%%%%##@@::@@::@@##%%%%%%%",
"  %%%%%%%%%#@@:@@@::@@##%%%%%%%%   %%%%%%%%##@@::@@::@@##%%%%%%%",
"  %%%%%%%%##@@::@@::@@##%%%%%%%%   %%%%%%%%##@@::@@::@@##%%%%%%%",
"  %%%%%%%%##@@::@@::@@##%%%%%%%%   %%%%%%%%##@@::@@::@@##%%%%%%%",
"  %%%%%%%%##@@::@@::@@##%%%%%%%%   %%%%%%%%##@@::@@::@@##%%%%%%%",
"  %%%%%%%%##@@::@@::@@##%%%%%%%%   %%%%%%%%##@@::@@::@@##%%%%%%%",
"  %%%%%%%%##@@::@@::@@##%%%%%%%%   %%%%%%%%##@@::@@::@@##%%%%%%%",
"   %%%%%%%##@@:@@@::@@##%%%%%%%%   %%%%%%%%##@@::@@::@@##%%%%%%%",
"  %%%%%%%%##@@::@@::@@##%%%%%%%%   %%%%%%%%##@@::@@::@@##%%%%%%%",
"  %%%%%%%%##@@::@@::@@##%%%%%%%%   %%%%%%%%##@@::@@::@@##%%%%%%%",
"  %%%%%%%%##@@::@@::@@##%%%%%%%%   %%%%%%%%##@@::@@::@@##%%%%%%%",
"  %%%%%%%%##@@::@@::@@##%%%%%%%%   %%%%%%%%##@@::@@::@@#%%%%%%%%",
"  %%%%%%%%##@@::@@::@@##%%%%%%%%   %%%%%%%%##@@::@@::@@##%%%%%%%",
"  %%%%%%%%##@@::@@::@@##%%%%%%%%   %%%%%%%%##@@::@@@:@@##%%%%%%%",
"  %%%%%%%%##@@::@@::@@##%%%%%%%%   %%%%%%%%##@@::@@::@@##%%%%%%%",
"  %%%%%%%%##@@::@@::@@##%%%%%%%%   %%%%%%%%##@@::@@::@@##%%%%%%%",
"  %%%%%%%%##@@::@@::@@##%%%%%%%%   %%%%%%%%##@@::@@::@@##%%%%%%%",
"  %%%%%%%%##@@::@@::@@##%%%%%%%%   %%%%%%%%##@@::@@::@@##%%%%%%%",
"  %%%%%%%%##@@:@@@::@@##%%%%%%%%   %%%%%%%%##@@::@@::@@##%%%%%%%",
"  %%%%######@@@@@@@@@####%%%%%%%   %%%%######@@@@@@@@@###%%%%%%%",
"  %%%%######################%%%%   %%%%######################%%%",
"  %%%%######################%%%%   %%%%#####################%%%%",
"  %%##########################%%   %##########################%%",
"  %%%###########%%%%%########%%%   %%%###########%%%%%########%%",
"  %%%%%%%%%%%%%%%%%%%%%%%%%%%%%%   %%%%%%%%%%%%%%%%%%%%%%%%%%%%%",
"                                                                ",
"                                                                ",
"                                                                ",
"                                                                "
};
