/* XPM */
static char * large_bricks_xpm[] = {
"64 64 32 1",
"  	c #8A6D60",
".	c #8A6D60",
"+	c #7B5E54",
"@	c #7B5D53",
"#	c #5E4A3A",
"$	c #8A6E58",
"%	c #705547",
"&	c #5D4938",
"*	c #5C4937",
"=	c #8C6E5B",
"-	c #7E6250",
";	c #7E6250",
">	c #7A6150",
",	c #8C6F5C",
"'	c #725949",
")	c #6D5444",
"!	c #8B6D58",
"~	c #715547",
"{	c #6D5443",
"]	c #8B6C58",
"^	c #64503E",
"/	c #5F4B39",
"(	c #86715E",
"_	c #614D3C",
":	c #786451",
"<	c #5E4A39",
"[	c #5D4938",
"}	c #8A6E57",
"|	c #8A6E57",
"1	c #7A5D4C",
"2	c #7A5E4C",
"3	c #5F4B3A",
"                                                              .+",
"                                                             .@#",
"    $$$$$$$$$$$$$$$$$$$$$$$$$$$$$$$$$$$$$$$$$$$$$$$$$$$$$$$$.%&*",
"   =-;;;;;;;;;;;;;;;;;;;;;;;;;;;;;;;;;;;;;;;;;;;;;;;;;;;;;;;>#**",
"   ,'''''''''''''''''''''''''''''''''''''''''''''''''''''''')&**",
"   ,'''''''''''''''''''''''''''''''''''''''''''''''''''''''')&**",
"   ,'''''''''''''''''''''''''''''''''''''''''''''''''''''''')&**",
"   ,'''''''''''''''''''''''''''''''''''''''''''''''''''''''')&**",
"   ,'''''''''''''''''''''''''''''''''''''''''''''''''''''''')&**",
"   ,'''''''''''''''''''''''''''''''''''''''''''''''''''''''')&**",
"   ,'''''''''''''''''''''''''''''''''''''''''''''''''''''''')&**",
"   ,'''''''''''''''''''''''''''''''''''''''''''''''''''''''')&**",
"   ,'''''''''''''''''''''''''''''''''''''''''''''''''''''''')&**",
"   ,'''''''''''''''''''''''''''''''''''''''''''''''''''''''')&**",
"   ,'''''''''''''''''''''''''''''''''''''''''''''''''''''''')&**",
"   ,'''''''''''''''''''''''''''''''''''''''''''''''''''''''')&**",
"   ,'''''''''''''''''''''''''''''''''''''''''''''''''''''''')&**",
"   ,'''''''''''''''''''''''''''''''''''''''''''''''''''''''')&**",
"   ,'''''''''''''''''''''''''''''''''''''''''''''''''''''''')&**",
"   ,'''''''''''''''''''''''''''''''''''''''''''''''''''''''')&**",
"   ,'''''''''''''''''''''''''''''''''''''''''''''''''''''''')&**",
"   ,'''''''''''''''''''''''''''''''''''''''''''''''''''''''')&**",
"   ,'''''''''''''''''''''''''''''''''''''''''''''''''''''''')&**",
"   ,'''''''''''''''''''''''''''''''''''''''''''''''''''''''')&**",
"   ,'''''''''''''''''''''''''''''''''''''''''''''''''''''''')&**",
"   ,'''''''''''''''''''''''''''''''''''''''''''''''''''''''')&**",
"   ,'''''''''''''''''''''''''''''''''''''''''''''''''''''''')&**",
"   ,'''''''''''''''''''''''''''''''''''''''''''''''''''''''')&**",
"   !~~~~~~~~~~~~~~~~~~~~~~~~~~~~~~~~~~~~~~~~~~~~~~~~~~~~~~~~{&**",
"  ]^/////////////////////////////////////////////////////////***",
" (_*************************************************************",
":_<<<<<<<<<<<<<<<<<<<<<<<<<<<<<<<<<<<<<<<<<<<<<<<<<<<<<<<<<<<<<[",
".}}}}}}}}}}}}}}}}}}}}}}}}}}}}}}}}}}}}}}}}}}}}}}}}}}}}}}}}}}}}}|1",
"                                                             .@#",
"$$$$$$$$$$$$$$$$$$$$$$$$$$$$$$$$    .%&*$$$$$$$$$$$$$$$$$$$$$$$$",
";;;;;;;;;;;;;;;;;;;;;;;;;;;;;;=-   >#**;;;;;;;;;;;;;;;;;;;;;;;;;",
"''''''''''''''''''''''''''')&**,   '''''''''''''''''''''''''''''",
"''''''''''''''''''''''''''')&**,   '''''''''''''''''''''''''''''",
"''''''''''''''''''''''''''')&**,   '''''''''''''''''''''''''''''",
"''''''''''''''''''''''''''')&**,   '''''''''''''''''''''''''''''",
"''''''''''''''''''''''''''')&**,   '''''''''''''''''''''''''''''",
"''''''''''''''''''''''''''')&**,   '''''''''''''''''''''''''''''",
"''''''''''''''''''''''''''')&**,   '''''''''''''''''''''''''''''",
"''''''''''''''''''''''''''')&**,   '''''''''''''''''''''''''''''",
"''''''''''''''''''''''''''')&**,   '''''''''''''''''''''''''''''",
"''''''''''''''''''''''''''')&**,   '''''''''''''''''''''''''''''",
"''''''''''''''''''''''''''')&**,   '''''''''''''''''''''''''''''",
"''''''''''''''''''''''''''')&**,   '''''''''''''''''''''''''''''",
"''''''''''''''''''''''''''')&**,   '''''''''''''''''''''''''''''",
"''''''''''''''''''''''''''')&**,   '''''''''''''''''''''''''''''",
"''''''''''''''''''''''''''')&**,   '''''''''''''''''''''''''''''",
"''''''''''''''''''''''''''')&**,   '''''''''''''''''''''''''''''",
"''''''''''''''''''''''''''')&**,   '''''''''''''''''''''''''''''",
"''''''''''''''''''''''''''')&**,   '''''''''''''''''''''''''''''",
"''''''''''''''''''''''''''')&**,   '''''''''''''''''''''''''''''",
"''''''''''''''''''''''''''')&**,   '''''''''''''''''''''''''''''",
"''''''''''''''''''''''''''')&**,   '''''''''''''''''''''''''''''",
"''''''''''''''''''''''''''')&**,   '''''''''''''''''''''''''''''",
"''''''''''''''''''''''''''')&**,   '''''''''''''''''''''''''''''",
"''''''''''''''''''''''''''')&**,   '''''''''''''''''''''''''''''",
"~~~~~~~~~~~~~~~~~~~~~~~~~~~~~~~!   {&**~~~~~~~~~~~~~~~~~~~~~~~~~",
"//////////////////////////////]^  ***///////////////////////////",
"******************************(_ *******************************",
"23**************************************************************"};
