/* XPM */
static char *af8f85cac1c4402c8b4efa20449d6f21[] = {
/* columns rows colors chars-per-pixel */
"64 64 2 1 ",
"X c #A88477",
"A c #28200C",
/* pixels */
"XXXXXXXXXXXXXXXXXXXXXXXXXXXXXXXXXXXXXXXXXXXXXXXXXXXXXXXXXXXXXXXX",
"XAXXXXXXXXXXXXXXXXXXXXXXXXXXXXXXXXXXXXXXXXXXXXXXXXXXXXXXXXXXXXAX",
"XXAXXXXXXXXXXXXXXXXXXXXXXXXXXXXXXXXXXXXXXXXXXXXXXXXXXXXXXXXXXAXX",
"XXXAXXXXXXXXXXXXXXXXXXXXXXXXXXXXXXXXXXXXXXXXXXXXXXXXXXXXXXXXAXXX",
"XXXXAXXXXXXXXXXXXXXXXXXXXXXXXXXXXXXXXXXXXXXXXXXXXXXXXXXXXXXAXXXX",
"XXXXXAXXXXXXXXXXXXXXXXXXXXXXXXXXXXXXXXXXXXXXXXXXXXXXXXXXXXAXXXXX",
"XXXXXXAXXXXXXXXXXXXXXXXXXXXXXXXXXXXXXXXXXXXXXXXXXXXXXXXXXAXXXXXX",
"XXXXXXXAXXXXXXXXXXXXXXXXXXXXXXXXXXXXXXXXXXXXXXXXXXXXXXXXAXXXXXXX",
"XXXXXXXXAXXXXXXXXXXXXXXXXXXXXXXXXXXXXXXXXXXXXXXXXXXXXXXAXXXXXXXX",
"XXXXXXXXXAXXXXXXXXXXXXXXXXXXXXXXXXXXXXXXXXXXXXXXXXXXXXAXXXXXXXXX",
"XXXXXXXXXXAXXXXXXXXXXXXXXXXXXXXXXXXXXXXXXXXXXXXXXXXXXAXXXXXXXXXX",
"XXXXXXXXXXXAXXXXXXXXXXXXXXXXXXXXXXXXXXXXXXXXXXXXXXXXAXXXXXXXXXXX",
"XXXXXXXXXXXXAXXXXXXXXXXXXXXXXXXXXXXXXXXXXXXXXXXXXXXAXXXXXXXXXXXX",
"XXXXXXXXXXXXXAXXXXXXXXXXXXXXXXXXXXXXXXXXXXXXXXXXXXAXXXXXXXXXXXXX",
"XXXXXXXXXXXXXXAXXXXXXXXXXXXXXXXXXXXXXXXXXXXXXXXXXAXXXXXXXXXXXXXX",
"XXXXXXXXXXXXXXXAXXXXXXXXXXXXXXXXXXXXXXXXXXXXXXXXAXXXXXXXXXXXXXXX",
"XXXXXXXXXXXXXXXXAXXXXXXXXXXXXXXXXXXXXXXXXXXXXXXAXXXXXXXXXXXXXXXX",
"XXXXXXXXXXXXXXXXXAXXXXXXXXXXXXXXXXXXXXXXXXXXXXAXXXXXXXXXXXXXXXXX",
"XXXXXXXXXXXXXXXXXXAXXXXXXXXXXXXXXXXXXXXXXXXXXAXXXXXXXXXXXXXXXXXX",
"XXXXXXXXXXXXXXXXXXXAXXXXXXXXXXXXXXXXXXXXXXXXAXXXXXXXXXXXXXXXXXXX",
"XXXXXXXXXXXXXXXXXXXXAXXXXXXXXXXXXXXXXXXXXXXAXXXXXXXXXXXXXXXXXXXX",
"XXXXXXXXXXXXXXXXXXXXXAXXXXXXXXXXXXXXXXXXXXAXXXXXXXXXXXXXXXXXXXXX",
"XXXXXXXXXXXXXXXXXXXXXXAXXXXXXXXXXXXXXXXXXAXXXXXXXXXXXXXXXXXXXXXX",
"XXXXXXXXXXXXXXXXXXXXXXXAXXXXXXXXXXXXXXXXAXXXXXXXXXXXXXXXXXXXXXXX",
"XXXXXXXXXXXXXXXXXXXXXXXXAXXXXXXXXXXXXXXAXXXXXXXXXXXXXXXXXXXXXXXX",
"XXXXXXXXXXXXXXXXXXXXXXXXXAXXXXXXXXXXXXAXXXXXXXXXXXXXXXXXXXXXXXXX",
"XXXXXXXXXXXXXXXXXXXXXXXXXXAXXXXXXXXXXAXXXXXXXXXXXXXXXXXXXXXXXXXX",
"XXXXXXXXXXXXXXXXXXXXXXXXXXXAXXXXXXXXAXXXXXXXXXXXXXXXXXXXXXXXXXXX",
"XXXXXXXXXXXXXXXXXXXXXXXXXXXXAXXXXXXAXXXXXXXXXXXXXXXXXXXXXXXXXXXX",
"XXXXXXXXXXXXXXXXXXXXXXXXXXXXXAXXXXAXXXXXXXXXXXXXXXXXXXXXXXXXXXXX",
"XXXXXXXXXXXXXXXXXXXXXXXXXXXXXXAXXAXXXXXXXXXXXXXXXXXXXXXXXXXXXXXX",
"XXXXXXXXXXXXXXXXXXXXXXXXXXXXXXXAAXXXXXXXXXXXXXXXXXXXXXXXXXXXXXXX",
"XXXXXXXXXXXXXXXXXXXXXXXXXXXXXXXAAXXXXXXXXXXXXXXXXXXXXXXXXXXXXXXX",
"XXXXXXXXXXXXXXXXXXXXXXXXXXXXXXAXXAXXXXXXXXXXXXXXXXXXXXXXXXXXXXXX",
"XXXXXXXXXXXXXXXXXXXXXXXXXXXXXAXXXXAXXXXXXXXXXXXXXXXXXXXXXXXXXXXX",
"XXXXXXXXXXXXXXXXXXXXXXXXXXXXAXXXXXXAXXXXXXXXXXXXXXXXXXXXXXXXXXXX",
"XXXXXXXXXXXXXXXXXXXXXXXXXXXAXXXXXXXXAXXXXXXXXXXXXXXXXXXXXXXXXXXX",
"XXXXXXXXXXXXXXXXXXXXXXXXXXAXXXXXXXXXXAXXXXXXXXXXXXXXXXXXXXXXXXXX",
"XXXXXXXXXXXXXXXXXXXXXXXXXAXXXXXXXXXXXXAXXXXXXXXXXXXXXXXXXXXXXXXX",
"XXXXXXXXXXXXXXXXXXXXXXXXAXXXXXXXXXXXXXXAXXXXXXXXXXXXXXXXXXXXXXXX",
"XXXXXXXXXXXXXXXXXXXXXXXAXXXXXXXXXXXXXXXXAXXXXXXXXXXXXXXXXXXXXXXX",
"XXXXXXXXXXXXXXXXXXXXXXAXXXXXXXXXXXXXXXXXXAXXXXXXXXXXXXXXXXXXXXXX",
"XXXXXXXXXXXXXXXXXXXXXAXXXXXXXXXXXXXXXXXXXXAXXXXXXXXXXXXXXXXXXXXX",
"XXXXXXXXXXXXXXXXXXXXAXXXXXXXXXXXXXXXXXXXXXXAXXXXXXXXXXXXXXXXXXXX",
"XXXXXXXXXXXXXXXXXXXAXXXXXXXXXXXXXXXXXXXXXXXXAXXXXXXXXXXXXXXXXXXX",
"XXXXXXXXXXXXXXXXXXAXXXXXXXXXXXXXXXXXXXXXXXXXXAXXXXXXXXXXXXXXXXXX",
"XXXXXXXXXXXXXXXXXAXXXXXXXXXXXXXXXXXXXXXXXXXXXXAXXXXXXXXXXXXXXXXX",
"XXXXXXXXXXXXXXXXAXXXXXXXXXXXXXXXXXXXXXXXXXXXXXXAXXXXXXXXXXXXXXXX",
"XXXXXXXXXXXXXXXAXXXXXXXXXXXXXXXXXXXXXXXXXXXXXXXXAXXXXXXXXXXXXXXX",
"XXXXXXXXXXXXXXAXXXXXXXXXXXXXXXXXXXXXXXXXXXXXXXXXXAXXXXXXXXXXXXXX",
"XXXXXXXXXXXXXAXXXXXXXXXXXXXXXXXXXXXXXXXXXXXXXXXXXXAXXXXXXXXXXXXX",
"XXXXXXXXXXXXAXXXXXXXXXXXXXXXXXXXXXXXXXXXXXXXXXXXXXXAXXXXXXXXXXXX",
"XXXXXXXXXXXAXXXXXXXXXXXXXXXXXXXXXXXXXXXXXXXXXXXXXXXXAXXXXXXXXXXX",
"XXXXXXXXXXAXXXXXXXXXXXXXXXXXXXXXXXXXXXXXXXXXXXXXXXXXXAXXXXXXXXXX",
"XXXXXXXXXAXXXXXXXXXXXXXXXXXXXXXXXXXXXXXXXXXXXXXXXXXXXXAXXXXXXXXX",
"XXXXXXXXAXXXXXXXXXXXXXXXXXXXXXXXXXXXXXXXXXXXXXXXXXXXXXXAXXXXXXXX",
"XXXXXXXAXXXXXXXXXXXXXXXXXXXXXXXXXXXXXXXXXXXXXXXXXXXXXXXXAXXXXXXX",
"XXXXXXAXXXXXXXXXXXXXXXXXXXXXXXXXXXXXXXXXXXXXXXXXXXXXXXXXXAXXXXXX",
"XXXXXAXXXXXXXXXXXXXXXXXXXXXXXXXXXXXXXXXXXXXXXXXXXXXXXXXXXXAXXXXX",
"XXXXAXXXXXXXXXXXXXXXXXXXXXXXXXXXXXXXXXXXXXXXXXXXXXXXXXXXXXXAXXXX",
"XXXAXXXXXXXXXXXXXXXXXXXXXXXXXXXXXXXXXXXXXXXXXXXXXXXXXXXXXXXXAXXX",
"XXAXXXXXXXXXXXXXXXXXXXXXXXXXXXXXXXXXXXXXXXXXXXXXXXXXXXXXXXXXXAXX",
"XAXXXXXXXXXXXXXXXXXXXXXXXXXXXXXXXXXXXXXXXXXXXXXXXXXXXXXXXXXXXXAX",
"XXXXXXXXXXXXXXXXXXXXXXXXXXXXXXXXXXXXXXXXXXXXXXXXXXXXXXXXXXXXXXXX"
};
