/* XPM */
static char *_77648432d4a41fd94c0c246e802affc1afgaBG4ke36O5tG[] = {
/* columns rows colors chars-per-pixel */
"64 64 75 1 ",
"  c #4AC517",
". c #47C718",
"X c #4CC619",
"o c #4CC91B",
"O c #54C517",
"+ c #53C619",
"@ c #5BC61A",
"# c #54CA1D",
"$ c #5ACA1E",
"% c #64C719",
"& c #63CA1C",
"* c #6CCA1D",
"= c #71CC1F",
"- c #56CC20",
"; c #59CC21",
": c #58D022",
"> c #65CE25",
", c #6BCE24",
"< c #6CCF29",
"1 c #73CD23",
"2 c #7CCE22",
"3 c #65D026",
"4 c #69D027",
"5 c #6DD029",
"6 c #72D025",
"7 c #7AD225",
"8 c #75D32D",
"9 c #79D52F",
"0 c #7CD430",
"q c #84CD23",
"w c #8ACF25",
"e c #92CF2A",
"r c #83D325",
"t c #8ED326",
"y c #84D42D",
"u c #8AD52B",
"i c #8ED528",
"p c #8CD628",
"a c #90D324",
"s c #93D325",
"d c #94D324",
"f c #94D325",
"g c #97D426",
"h c #99D223",
"j c #9FD223",
"k c #9BD224",
"l c #9DD324",
"z c #9BD425",
"x c #9DD426",
"c c #91D328",
"v c #90D428",
"b c #96D72B",
"n c #94D62C",
"m c #9BD528",
"M c #9CD629",
"N c #99D72D",
"B c #9CD829",
"V c #9CDA2F",
"C c #80D530",
"Z c #8BD630",
"A c #8CD933",
"S c #93D732",
"D c #95D934",
"F c #9CDA32",
"G c #A2D322",
"H c #A1D324",
"J c #A2D425",
"K c #A4D627",
"L c #A2D729",
"P c #A1D72B",
"I c #A4D728",
"U c #A3D82A",
"Y c #A5D82A",
"T c #A0DB2F",
"R c #A1DB30",
/* pixels */
"GGGGGGGGHHHjjjjjjlllkkkzzmMMMMMMBzzzddddddddsccccvvdttttttttttwq",
"GGGGGGGGHHHjjjjjlllkhhhkzmmMMMMBBmzdddddddddsscccvvttttttttituqq",
"GGGGGGGHJHHjjjjjllxkhhkkzmmmmMmmmzzdddddddsssssccvttttttdttitqqq",
"GGGGGGGjHHxjjjjlxlxzkkkkMmmmmmmmmzgdddddddsssssccttttttttttiiqqq",
"HHHHHHGjHxxjllllxxkkkzzzMMmmmmmmzgddddddssssssscttttsssstttiuq2q",
"JJJJJHHHJJxxxlxxkkkkkzzzMMMmmmmmgdddddddssssssssttttssssdttur222",
"KKKJJJLLLLLLLLLLmmmmmmmmmmmmmmmmsssssssssssssssstttttttttiirr227",
"IIIIJLLLLLLLLLLLmmmmmmmmmmmmmmmmssssssssssssssssttttttttttur2277",
"YYYIILLLLLLLLLLLmmmmmmmmmmmmmmmmsssssssssssssssstttttttttuur7776",
"YLLLLLLLLLLLLLLLmmmmmmmmmmmmmmmmsssssssssssssssstttttttttur77777",
"LLLLLLLLLLLLLLLLmmmmmmmmmmmmmmmmsssssssssssssssstttttttttr777777",
"ULLLLLLLLLLLLLLLmmmmmmmmmmmmmmmmsssssssssssssssstttttttttr777777",
"LLLLLLLLLLLLLLLLmmmmmmmmmmmmmmmmssssssssssssssssttttttttt7777666",
"LLLLLLLLLLLLLLLLmmmmmmmmmmmmmmmmssssssssssssssssttttttttt7777666",
"LLLLLLLLLLLLLLLLmmmmmmmmmmmmmmmmssssssssssssddddttttttttt7766666",
"LLLLLLLLLLLLLLLLmmmmmmmmmmmmmmmmssssssssssssddddttttttttt7766666",
"LLLLLLTTTTTTTTTTbbbbbbbbbbbbbbbbuuuuuuuuuuuuuuuu1111111116661111",
"LLLLLMTTTTTTTTTTbbbbbbbbbbbbbbbbuuuuuuuuuuuuuuuu1111111116611112",
"LLLLMMTTTTTTTTTTbbbbbbbbbbbbbbbbuuuuuuuuuuuuuuuu1111111116611111",
"LLLMMBTTTTTTTTTTbbbbbbbbbbbbbbbbuuuuuuuuuuuuuuuu1111111116111111",
"TTTTMBTTTTTTTTTTbbbbbbbbbbbbbbbbuuuuuuuuuuuuuuuu11111111111111==",
"TTTTTBTTTTTTTTTTbbbbbbbbbbbbbbbbuuuuuuuuuuuuuuuu11111111111111**",
"TTTTTTTTTTTTTTTTbbbbbbbbbbbbbbbbuuuuuuuuuuuuuuuu1111111111111,*%",
"TTTTTRTTTTTTTTTTbbbbbbbbbbbbbbbbuuuuuuuuuuuuuuuu1111111111111,&%",
"TTRRRTTTTTTTTTTTbbbbbbbbbbbbbbbbuuuuuuuuuuuuuuuu1111111111=1,%%&",
"TTRRRRTTTTTTTTTTbbbbbbbbbbbbbbbbuuuuuuuuuuuuuuuu111111111,11,%@&",
"TRRRRRTTTTTTTTTTbbbbbbbbbbbbbbbbuuuuuuuuuuuuuuuu111111111,1,&@$>",
"RRRRRFTTTTTTTTTTbbbbbbbbbbbbbbbbuuuuuuuuuuuuuuuu111111111,,&@$$;",
"RRRRFFTTTTTTTTTTbbbbbbbbbbbbbbbbuuuuuuuuuuuuuuuu111111111,>@@$--",
"RRRFFFTTTTTTTTTTbbbbbbbbbbbbbbbbuuuuuuuuuuuuuuuu111111111>$@+$:-",
"RRFFFFTTTTTTTTTTbbbbbbbbbbbbbbbbuuuuuuuuuuuuuuuu111111111&@O+-:-",
"RRFFFFTTTTTTTTTTbbbbbbbbbbbbbbbbuuuuuuuuuuuuuuuu111111111@++$-::",
"VVVVVVnnnnnnnnnnuuuuuuuuuuuuuuuu1666666666666666---------+O+$#:#",
"VVVVVVnnnnnnnnnnuuuuuuuuuuuuuuuu6666666666666666------;;-++++###",
"VVVVNVnnnnnnnnnnuuuuuuuuuuuuuuuu6666666666666666;-;;-;;;-+++#$##",
"VVVVVFnnnnnnnnnnuuuuuuuuuuuuuuuu6666666666666666;;;;-;;;-++$#$##",
"VVVVFFnnnnnnnnnnuuuuuuuuuuuuuuuu6666666666666666---;;;---++#####",
"NNNNNNnnnnnnnnnnuuuuuuuuuuuuuuuu6666666666666666----;;---+++##o#",
"NNNNbNnnnnnnnnnnuuuuuuuuuuuuuuuu6666666666666666----;;---#XXo##o",
"FFFFNNnnnnnnnnnnuuuuuuuuuuuuuuuu6666666666666666----;;---$XXo###",
"FFFFFNnnnnnnnnnnuuuuuuuuuuuuuuuu6666666666666666---------+XXXXoo",
"FFFFDSnnnnnnnnnnuuuuuuuuuuuuuuuu6666666666666666----;;---#XXXooo",
"FFFFDDnnnnnnnnnnuuuuuuuuuuuuuuuu6666666666666666--;;;;;--$+XXooo",
"FFDDDDnnnnnnnnnnuuuuuuuuuuuuuuuu6666666666666666---;;;---$#XXXoo",
"DDDDDDnnnnnnnnnnuuuuuuuuuuuuuuuu6666666666666666;;;;-----$$+XXoo",
"DDDDDDnnnnnnnnnnuuuuuuuuuuuuuuuu6666666666666666--;;-----#$+XXoo",
"DSDDDDnnnnnnnnnnuuuuuuuuuuuuuuuu6666666666666666---------$##XXXX",
"SSDDDSnnnnnnnnnnuuuuuuuuuuuuuuuu6666666666666666---------$$$XXX ",
"DDDDDDDDDDDDDDDD9999999999999999>>>>>>>>>>>>>>>>;;;;;;;;;$$$# XX",
"SDDDDDDDDDDDDDDD9999999999999999>>>>>>>>>>>>>>>>;;;;;;--;$$$#X..",
"nSSSDDDDDDDDDDDD9999999999999999>>>>>>>>>>>>>>>>;;;;;;--;$$$#X..",
"iSSSDDDDDDDDDDDD9999999999999999>>>>>>>>>>>>>>>>;;;;;;-;;$$$#X.X",
"iSSSDDDDDDDDDDDD9999999999999999>>>>>>>>>>>>>>>>;;;;;;;;;;$-#X..",
"uiSSSDDDDDDDDDDD9999999999999999>>>>>>>>>>>>>>>>;;;;;;;;;;$-#X..",
"uuiiSSDDDDDDDDDD9999999999999999>>>>>>>>>>>>>>>>;;;;--;;;;$-#o..",
"iiuuuSDDDDDDDDDD9999999999999999>>>>>>>>>>>>>>>>;;;---;;;-$-#o..",
"SiuZZuDDDDDDDDDD9999999999999999>>>>>>>>>>>>>>>>;---;;;;;$;-#oX.",
"SZiiuuZSSDDSyyyy9999999908885<<<<,,,>>>>>>>4>;$$$$$###-;;$;-#oX.",
"DSZuuuuiSDDSZyyC9999999998885<<<44,,>>>>4>444>;$$$$##---;$---ooX",
"DDSuyyuuDDSSAZy99099999989888<<<44,,>>>>444443;$$$$#----;$---#oX",
"NDDZyyyuDDSSAZ790000999999888<<<444>4>>>443333;$$;;----;;$$--#XX",
"nSDAyyyuuDDSAy7C000099998988885,444>4>>>>43>33;;;;;----;-$$--#oX",
"eSDSZyyyuDDSAu7C000009998988885,444>44>>>43>>3>;;;;;---;-$$--#oX",
"nSDDAyyyuDSiDZy9000009998888885,444>44>>>44>>3>;;;;;---;-$$;-#oX"
};
